<?xml version="1.0" standalone="no"?><!DOCTYPE svg PUBLIC "-//W3C//DTD SVG 1.1//EN" "http://www.w3.org/Graphics/SVG/1.1/DTD/svg11.dtd"><svg class="icon" width="48px" height="48.00px" viewBox="0 0 1024 1024" version="1.1" xmlns="http://www.w3.org/2000/svg"><path d="M213.333333 170.666667a42.666667 42.666667 0 0 0-42.666666 42.666666v42.666667a42.666667 42.666667 0 1 1-85.333334 0v-42.666667a128 128 0 0 1 128-128h128a42.666667 42.666667 0 1 1 0 85.333334h-128z m254.485334 209.792H650.666667v64h-118.848v49.770666H650.666667v64h-118.848v124.458667h-64V380.458667z m315.413333 64H691.84v-64H938.666667v64h-91.434667v238.229333h-64V444.458667z m-416-60.437334v288h-95.082667L202.666667 491.904V682.666667h-64V394.666667h95.104l69.461333 180.117333V384h64zM170.666667 810.666667a42.666667 42.666667 0 0 0 42.666666 42.666666h128a42.666667 42.666667 0 1 1 0 85.333334h-128a128 128 0 0 1-128-128v-42.666667a42.666667 42.666667 0 1 1 85.333334 0v42.666667zM810.666667 170.666667a42.666667 42.666667 0 0 1 42.666666 42.666666v42.666667a42.666667 42.666667 0 1 0 85.333334 0v-42.666667a128 128 0 0 0-128-128h-128a42.666667 42.666667 0 1 0 0 85.333334h128z m42.666666 640a42.666667 42.666667 0 0 1-42.666666 42.666666h-128a42.666667 42.666667 0 1 0 0 85.333334h128a128 128 0 0 0 128-128v-42.666667a42.666667 42.666667 0 1 0-85.333334 0v42.666667z" fill="#2c2c2c" /></svg>